<mxfile host="app.diagrams.net" modified="2024-07-05T21:03:10.560Z" agent="Mozilla/5.0 (Windows NT 10.0; Win64; x64) AppleWebKit/537.36 (KHTML, like Gecko) Chrome/126.0.0.0 Safari/537.36" etag="dxZwSjyP8AH5xogpKe_r" version="24.6.4" type="device">
  <diagram name="Page-1" id="KQFuyftz7reZFENfJaDW">
    <mxGraphModel dx="794" dy="412" grid="1" gridSize="10" guides="1" tooltips="1" connect="1" arrows="1" fold="1" page="1" pageScale="1" pageWidth="850" pageHeight="1100" math="0" shadow="0">
      <root>
        <mxCell id="0" />
        <mxCell id="1" parent="0" />
        <mxCell id="hqGqQby-uz6OhmOYH-jm-11" value="" style="edgeStyle=orthogonalEdgeStyle;rounded=0;orthogonalLoop=1;jettySize=auto;html=1;" edge="1" parent="1" source="hqGqQby-uz6OhmOYH-jm-3" target="hqGqQby-uz6OhmOYH-jm-4">
          <mxGeometry relative="1" as="geometry" />
        </mxCell>
        <mxCell id="hqGqQby-uz6OhmOYH-jm-3" value="Azure Cloud" style="rounded=1;whiteSpace=wrap;html=1;" vertex="1" parent="1">
          <mxGeometry x="320" y="440" width="120" height="60" as="geometry" />
        </mxCell>
        <mxCell id="hqGqQby-uz6OhmOYH-jm-13" value="" style="edgeStyle=orthogonalEdgeStyle;rounded=0;orthogonalLoop=1;jettySize=auto;html=1;" edge="1" parent="1" source="hqGqQby-uz6OhmOYH-jm-4" target="hqGqQby-uz6OhmOYH-jm-5">
          <mxGeometry relative="1" as="geometry" />
        </mxCell>
        <mxCell id="hqGqQby-uz6OhmOYH-jm-4" value="Azure Virtual Network&lt;div&gt;(Hub &amp;amp; Spoke)&lt;br&gt;&lt;/div&gt;" style="rounded=1;whiteSpace=wrap;html=1;" vertex="1" parent="1">
          <mxGeometry x="290" y="550" width="180" height="60" as="geometry" />
        </mxCell>
        <mxCell id="hqGqQby-uz6OhmOYH-jm-14" value="" style="edgeStyle=orthogonalEdgeStyle;rounded=0;orthogonalLoop=1;jettySize=auto;html=1;" edge="1" parent="1" source="hqGqQby-uz6OhmOYH-jm-5" target="hqGqQby-uz6OhmOYH-jm-6">
          <mxGeometry relative="1" as="geometry" />
        </mxCell>
        <mxCell id="hqGqQby-uz6OhmOYH-jm-5" value="Azure ExpressRoute&lt;div&gt;OR VPN&lt;/div&gt;" style="rounded=1;whiteSpace=wrap;html=1;" vertex="1" parent="1">
          <mxGeometry x="315" y="650" width="130" height="60" as="geometry" />
        </mxCell>
        <mxCell id="hqGqQby-uz6OhmOYH-jm-15" value="" style="edgeStyle=orthogonalEdgeStyle;rounded=0;orthogonalLoop=1;jettySize=auto;html=1;" edge="1" parent="1" source="hqGqQby-uz6OhmOYH-jm-6" target="hqGqQby-uz6OhmOYH-jm-8">
          <mxGeometry relative="1" as="geometry" />
        </mxCell>
        <mxCell id="hqGqQby-uz6OhmOYH-jm-6" value="Azure Management Services&amp;nbsp;&lt;div&gt;(ARM,Automation etc)&lt;/div&gt;" style="rounded=1;whiteSpace=wrap;html=1;" vertex="1" parent="1">
          <mxGeometry x="280" y="760" width="200" height="60" as="geometry" />
        </mxCell>
        <mxCell id="hqGqQby-uz6OhmOYH-jm-7" value="Azure Backup" style="rounded=0;whiteSpace=wrap;html=1;" vertex="1" parent="1">
          <mxGeometry x="90" y="870" width="120" height="60" as="geometry" />
        </mxCell>
        <mxCell id="hqGqQby-uz6OhmOYH-jm-16" value="" style="edgeStyle=orthogonalEdgeStyle;rounded=0;orthogonalLoop=1;jettySize=auto;html=1;" edge="1" parent="1" source="hqGqQby-uz6OhmOYH-jm-8" target="hqGqQby-uz6OhmOYH-jm-10">
          <mxGeometry relative="1" as="geometry" />
        </mxCell>
        <mxCell id="hqGqQby-uz6OhmOYH-jm-8" value="Azure Monitor &amp;amp;&amp;nbsp;&lt;div&gt;Log Analytics&lt;/div&gt;" style="rounded=0;whiteSpace=wrap;html=1;" vertex="1" parent="1">
          <mxGeometry x="320" y="870" width="120" height="60" as="geometry" />
        </mxCell>
        <mxCell id="hqGqQby-uz6OhmOYH-jm-9" value="Azure Sentinel" style="rounded=0;whiteSpace=wrap;html=1;" vertex="1" parent="1">
          <mxGeometry x="520" y="870" width="120" height="60" as="geometry" />
        </mxCell>
        <mxCell id="hqGqQby-uz6OhmOYH-jm-10" value="Azure Devops&lt;div&gt;CI CD Pipeline&lt;/div&gt;" style="rounded=1;whiteSpace=wrap;html=1;" vertex="1" parent="1">
          <mxGeometry x="320" y="980" width="120" height="60" as="geometry" />
        </mxCell>
        <mxCell id="hqGqQby-uz6OhmOYH-jm-17" value="" style="endArrow=classic;html=1;rounded=0;entryX=0.683;entryY=-0.067;entryDx=0;entryDy=0;entryPerimeter=0;exitX=-0.02;exitY=0.644;exitDx=0;exitDy=0;exitPerimeter=0;" edge="1" parent="1" source="hqGqQby-uz6OhmOYH-jm-6" target="hqGqQby-uz6OhmOYH-jm-7">
          <mxGeometry width="50" height="50" relative="1" as="geometry">
            <mxPoint x="170" y="810" as="sourcePoint" />
            <mxPoint x="370" y="860" as="targetPoint" />
            <Array as="points">
              <mxPoint x="172" y="800" />
            </Array>
          </mxGeometry>
        </mxCell>
        <mxCell id="hqGqQby-uz6OhmOYH-jm-18" value="" style="endArrow=classic;html=1;rounded=0;entryX=0.5;entryY=0;entryDx=0;entryDy=0;exitX=1.01;exitY=0.633;exitDx=0;exitDy=0;exitPerimeter=0;" edge="1" parent="1" source="hqGqQby-uz6OhmOYH-jm-6" target="hqGqQby-uz6OhmOYH-jm-9">
          <mxGeometry width="50" height="50" relative="1" as="geometry">
            <mxPoint x="580" y="800" as="sourcePoint" />
            <mxPoint x="370" y="860" as="targetPoint" />
            <Array as="points">
              <mxPoint x="580" y="800" />
            </Array>
          </mxGeometry>
        </mxCell>
      </root>
    </mxGraphModel>
  </diagram>
</mxfile>
